# xmcd
#
# Track frame offsets:
#	150
#	8217
#	21895
#	34802
#	45112
#	59505
#	71500
#	81780
#	95352
#	104202
#	113620
#	124520
#
# Disc length: 1841
#
# Revision: 1
# Processed by: cddbd v1.5.1PL0 Copyright (c) Steve Scherf et al.
# Submitted via: CDex 1.60beta1
# Normalized: r0:DSETVAR1
#
DISCID=93072f0c
DTITLE=Various Artist - Dinner Party
DYEAR=1999
DGENRE=Jazz
TTITLE0=Doris Day - Blue Skies
TTITLE1=Count Basie - Lady Be Good
TTITLE2=Mel Torme - I'll Be Seeing You
TTITLE3=Rosemary Clooney - As Long As I Live
TTITLE4=Les Brown - Blue Moon
TTITLE5=Sarah Vaughan - Serenata
TTITLE6=Peggy Lee - Just One Of Those Things
TTITLE7=Duke Ellington - Take The 'a' Train
TTITLE8=Doris Day - My Blue Heaven
TTITLE9=Mel Torme - I've Got The World On A String
TTITLE10=Artie Shaw - Dancing In The Dark
TTITLE11=Rosemary Clooney - Manhatten
EXTD=YEAR: 1999
EXTT0=
EXTT1=
EXTT2=
EXTT3=
EXTT4=
EXTT5=
EXTT6=
EXTT7=
EXTT8=
EXTT9=
EXTT10=
EXTT11=
PLAYORDER=
